# xmcd
#
# Track frame offsets: 
#        150
#        16062
#        30192
#        42441
#        58516
#        76202
#
# Disc length: 1170 seconds
#
# Revision: 2
# Processed by: cddbd v1.5.2PL0 Copyright (c) Steve Scherf et al.
# Submitted via: ExactAudioCopy v1.3
#
DISCID=36049006
DTITLE=Taylor Swift - The Taylor Swift Holiday Collection (EP)
DYEAR=2009
DGENRE=Pop
TTITLE0=Last Christmas
TTITLE1=Christmases When You Were Mine
TTITLE2=Santa Baby
TTITLE3=Silent Night
TTITLE4=Christmas Must Be Something More
TTITLE5=White Christmas
EXTD=YEAR: 2009
EXTT0=
EXTT1=
EXTT2=
EXTT3=
EXTT4=
EXTT5=
PLAYORDER=
